<svg width="20" height="20" viewBox="0 0 20 20" fill="none" xmlns="http://www.w3.org/2000/svg">
<path d="M10 19C13.9 19 17 17 17 12C17 7 12 7 12 1C9 3 7.63 5.1 7 9C5.98343 8.28354 5.27036 7.21393 5 6C4 7 3 10 3 12C3 15.14 4.28 19 10 19Z" stroke="white" stroke-linecap="round" stroke-linejoin="round"/>
<path d="M7.57324 17V16.082L10.0732 13.6699C10.7861 12.957 11.1572 12.5371 11.1572 11.9414C11.1572 11.2822 10.6348 10.8672 9.94629 10.8672C9.21875 10.8672 8.75 11.3213 8.75488 12.0391H7.54395C7.53906 10.7012 8.54492 9.83203 9.95605 9.83203C11.4014 9.83203 12.373 10.6963 12.3779 11.8828C12.373 12.6787 11.9922 13.3232 10.6006 14.6367L9.34082 15.8867V15.9355H12.4854V17H7.57324Z" fill="white"/>
</svg>
