<svg xmlns="http://www.w3.org/2000/svg" width="16" height="15" viewBox="0 0 16 15" fill="none">
  <path d="M6.36138 12.0848C6.27035 12.0848 6.1795 12.0487 6.10999 11.9763L4.50585 10.305C4.43918 10.2355 4.40167 10.1412 4.40167 10.043C4.40167 9.94484 4.43918 9.85055 4.50585 9.78108L13.4572 0.453835C14.0384 -0.151371 14.9833 -0.151186 15.5641 0.453835C16.1451 1.05904 16.1453 2.04382 15.5643 2.64921L6.61294 11.9763C6.54343 12.0487 6.45222 12.0848 6.36138 12.0848ZM5.26001 10.0428L6.3612 11.1903L15.0612 2.12514C15.3647 1.80874 15.3647 1.29394 15.0612 0.977532C14.7574 0.661313 14.2637 0.661128 13.9598 0.977532L5.26001 10.0428Z" fill="white"/>
  <path d="M0.355517 15.0004C0.231068 15.0004 0.112843 14.9322 0.0481296 14.816C-0.0329395 14.6706 -0.00982769 14.4869 0.104131 14.3679L4.50586 9.78136C4.64453 9.63668 4.86996 9.63668 5.00863 9.78136L7.51964 12.3978C7.60925 12.4912 7.64445 12.6271 7.61191 12.7548C7.57938 12.8824 7.48426 12.9824 7.36213 13.0171L0.449386 14.9872C0.418274 14.9963 0.386629 15.0004 0.355517 15.0004ZM4.75725 10.5674L1.5552 13.9039L6.58397 12.4708L4.75725 10.5674Z" fill="white"/>
  <path d="M6.36138 12.0845C6.27035 12.0845 6.1795 12.0484 6.10999 11.9759L4.50585 10.3046C4.43918 10.2352 4.40167 10.1409 4.40167 10.0427C4.40167 9.94451 4.43918 9.85022 4.50585 9.78075L5.81736 8.41417C5.95603 8.26949 6.18128 8.26949 6.32013 8.41417L7.92427 10.0855C7.99094 10.155 8.02845 10.2492 8.02845 10.3474C8.02845 10.4456 7.99094 10.5399 7.92427 10.6094L6.61276 11.9759C6.54342 12.0484 6.45222 12.0845 6.36138 12.0845ZM5.26001 10.0425L6.3612 11.1899L7.16993 10.3472L6.06874 9.19981L5.26001 10.0425Z" fill="white"/>
</svg>