<svg xmlns="http://www.w3.org/2000/svg" width="20" height="20" viewBox="0 0 20 20" fill="none">
  <path d="M13.3457 5.625C13.834 5.08797 14.5436 4.75 15.3333 4.75C16.8061 4.75 18 5.92526 18 7.375C18 8.82479 16.8061 10 15.3333 10H2M6.89712 3.58334C7.22265 3.22531 7.69571 3 8.22222 3C9.20409 3 10 3.7835 10 4.75C10 5.7165 9.20409 6.5 8.22222 6.5H2M9.56382 16.4166C9.88933 16.7747 10.3624 17 10.8889 17C11.8708 17 12.6667 16.2165 12.6667 15.25C12.6667 14.2835 11.8708 13.5 10.8889 13.5H2" stroke="white" stroke-linecap="round" stroke-linejoin="round"/>
</svg>