<svg xmlns="http://www.w3.org/2000/svg" width="20" height="20" viewBox="0 0 20 20" fill="none">
  <mask id="path-1-inside-1_437_2336" fill="white">
    <path fill-rule="evenodd" clip-rule="evenodd" d="M12.8472 7.1574C12.3137 5.88828 11.084 5 9.65216 5C8.22036 5 6.99061 5.88828 6.45715 7.1574C6.36401 7.14773 6.26952 7.14278 6.1739 7.14278C4.63711 7.14278 3.3913 8.42193 3.3913 9.99984C3.3913 10.0403 3.39212 10.0806 3.39374 10.1207C2.5819 10.4142 2 11.2085 2 12.1424C2 13.3259 2.93436 14.2852 4.08696 14.2852C4.21879 14.2852 4.34778 14.2727 4.47283 14.2487C4.85115 14.7032 5.47208 14.9997 6.17393 14.9997C6.73605 14.9997 7.24627 14.8095 7.6215 14.5003C8.19564 14.8062 9.04822 15 10 15C10.9518 15 11.8044 14.8062 12.3785 14.5003C12.7537 14.8095 13.2639 14.9997 13.8261 14.9997C14.5279 14.9997 15.1489 14.7032 15.5272 14.2487C15.6522 14.2727 15.7812 14.2852 15.913 14.2852C17.0656 14.2852 18 13.3259 18 12.1424C18 10.959 17.0656 9.99966 15.9131 9.99965C15.913 8.42183 14.6672 7.14278 13.1304 7.14278C13.0348 7.14278 12.9403 7.14773 12.8472 7.1574Z"/>
  </mask>
  <path d="M12.8472 7.1574L11.9253 7.5449C12.096 7.95098 12.5123 8.19754 12.9504 8.15206L12.8472 7.1574ZM6.45715 7.1574L6.3539 8.15206C6.79203 8.19753 7.20833 7.95097 7.37902 7.5449L6.45715 7.1574ZM3.39374 10.1207L3.73368 11.0611C4.14382 10.9129 4.41058 10.516 4.39292 10.0802L3.39374 10.1207ZM4.47283 14.2487L5.24144 13.609C5.00852 13.3291 4.6419 13.198 4.28433 13.2666L4.47283 14.2487ZM7.6215 14.5003L8.0917 13.6177C7.73452 13.4274 7.29785 13.4712 6.98553 13.7286L7.6215 14.5003ZM12.3785 14.5003L13.0145 13.7286C12.7022 13.4712 12.2655 13.4274 11.9083 13.6177L12.3785 14.5003ZM15.5272 14.2487L15.7157 13.2666C15.3581 13.198 14.9915 13.3291 14.7586 13.609L15.5272 14.2487ZM15.9131 9.99965L14.9131 9.99971C14.9131 10.552 15.3608 10.9996 15.9131 10.9997L15.9131 9.99965ZM13.769 6.7699C13.0899 5.15419 11.5125 4 9.65216 4V6C10.6555 6 11.5375 6.62238 11.9253 7.5449L13.769 6.7699ZM9.65216 4C7.79185 4 6.21443 5.15418 5.53528 6.7699L7.37902 7.5449C7.76679 6.62238 8.64886 6 9.65216 6V4ZM6.56039 6.16274C6.43302 6.14952 6.30407 6.14278 6.1739 6.14278V8.14278C6.23497 8.14278 6.295 8.14594 6.3539 8.15206L6.56039 6.16274ZM6.1739 6.14278C4.0601 6.14278 2.3913 7.8947 2.3913 9.99984H4.3913C4.3913 8.94916 5.21412 8.14278 6.1739 8.14278V6.14278ZM2.3913 9.99984C2.3913 10.0538 2.39239 10.1076 2.39456 10.1612L4.39292 10.0802C4.39184 10.0536 4.3913 10.0268 4.3913 9.99984H2.3913ZM3.0538 9.18025C1.84551 9.617 1 10.7877 1 12.1424H3C3 11.6294 3.31828 11.2113 3.73368 11.0611L3.0538 9.18025ZM1 12.1424C1 13.8531 2.35735 15.2852 4.08696 15.2852V13.2852C3.51137 13.2852 3 12.7986 3 12.1424H1ZM4.08696 15.2852C4.28242 15.2852 4.47451 15.2666 4.66133 15.2308L4.28433 13.2666C4.22104 13.2788 4.15517 13.2852 4.08696 13.2852V15.2852ZM3.70422 14.8884C4.28605 15.5875 5.19689 15.9997 6.17393 15.9997V13.9997C5.74727 13.9997 5.41624 13.819 5.24144 13.609L3.70422 14.8884ZM6.17393 15.9997C6.95955 15.9997 7.69666 15.7342 8.25747 15.272L6.98553 13.7286C6.79588 13.8849 6.51256 13.9997 6.17393 13.9997V15.9997ZM7.1513 15.3828C7.90788 15.7859 8.93306 16 10 16V14C9.16338 14 8.4834 13.8264 8.0917 13.6177L7.1513 15.3828ZM10 16C11.0669 16 12.0921 15.7859 12.8487 15.3828L11.9083 13.6177C11.5166 13.8264 10.8366 14 10 14V16ZM11.7425 15.272C12.3033 15.7342 13.0405 15.9997 13.8261 15.9997V13.9997C13.4874 13.9997 13.2041 13.8849 13.0145 13.7286L11.7425 15.272ZM13.8261 15.9997C14.8031 15.9997 15.714 15.5875 16.2958 14.8884L14.7586 13.609C14.5838 13.819 14.2527 13.9997 13.8261 13.9997V15.9997ZM15.3387 15.2308C15.5255 15.2666 15.7176 15.2852 15.913 15.2852V13.2852C15.8448 13.2852 15.779 13.2788 15.7157 13.2666L15.3387 15.2308ZM15.913 15.2852C17.6426 15.2852 19 13.8531 19 12.1424H17C17 12.7986 16.4886 13.2852 15.913 13.2852V15.2852ZM19 12.1424C19 10.4318 17.6427 8.99966 15.9131 8.99965L15.9131 10.9997C16.4886 10.9997 17 11.4862 17 12.1424H19ZM13.1304 8.14278C14.0902 8.14278 14.913 8.94909 14.9131 9.99971L16.9131 9.99959C16.9129 7.89456 15.2442 6.14278 13.1304 6.14278V8.14278ZM12.9504 8.15206C13.0094 8.14594 13.0694 8.14278 13.1304 8.14278V6.14278C13.0003 6.14278 12.8713 6.14953 12.7439 6.16275L12.9504 8.15206Z" fill="white" mask="url(#path-1-inside-1_437_2336)"/>
</svg>