<svg width="24" height="24" viewBox="0 0 24 24" fill="none" xmlns="http://www.w3.org/2000/svg">
<path d="M12.049 8.12962C11.7835 8.4476 11.8261 8.92056 12.1441 9.186C12.4621 9.45144 12.9351 9.40883 13.2005 9.09084L12.049 8.12962ZM17.5328 2.73038L16.9949 2.20778C16.9818 2.22129 16.9691 2.2353 16.9571 2.24977L17.5328 2.73038ZM20.9873 2.64622L21.497 2.09607L21.497 2.09603L20.9873 2.64622ZM21.3023 2.93817L20.7926 3.48832L20.7927 3.48839L21.3023 2.93817ZM21.2116 6.13821L20.7313 5.56216L20.7312 5.56228L21.2116 6.13821ZM14.6872 10.6041C14.3691 10.8694 14.3263 11.3423 14.5917 11.6604C14.857 11.9785 15.3299 12.0212 15.648 11.7559L14.6872 10.6041ZM14.7333 17.1747L15.2664 17.7022L15.2664 17.7022L14.7333 17.1747ZM16.3249 12.3492L16.858 11.8217L16.3249 12.3492ZM16.3249 15.5662L16.858 16.0937H16.858L16.3249 15.5662ZM11.55 7.52384L11.0169 8.05137L11.55 7.52384ZM9.95816 22L9.42505 22.5275L9.95814 23.0663L10.4913 22.5275L9.95816 22ZM2 13.9577L1.4669 13.4301L0.944862 13.9576L1.46689 14.4852L2 13.9577ZM13.2005 9.09084L18.1086 3.21099L16.9571 2.24977L12.049 8.12962L13.2005 9.09084ZM18.0708 3.25298C18.6979 2.6075 19.8095 2.5775 20.4775 3.1964L21.497 2.09603C20.2354 0.927274 18.1934 0.974097 16.9949 2.20778L18.0708 3.25298ZM20.7927 3.48839C21.4232 4.07245 21.4007 5.00405 20.7313 5.56216L21.6919 6.71426C23.051 5.58112 23.1114 3.59156 21.812 2.38795L20.7927 3.48839ZM20.7312 5.56228L14.6872 10.6041L15.648 11.7559L21.692 6.71414L20.7312 5.56228ZM11.0169 8.05137L15.7918 12.8768L16.858 11.8217L12.0831 6.9963L11.0169 8.05137ZM15.7918 15.0387L14.2002 16.6471L15.2664 17.7022L16.858 16.0937L15.7918 15.0387ZM15.2664 16.6471L7.30822 8.60477L6.24199 9.65984L14.2002 17.7022L15.2664 16.6471ZM7.30822 9.65984L8.89985 8.05137L7.83362 6.9963L6.24199 8.60477L7.30822 9.65984ZM15.7918 12.8768C16.3816 13.4729 16.3816 14.4426 15.7918 15.0387L16.858 16.0937C18.0262 14.9131 18.0262 13.0023 16.858 11.8217L15.7918 12.8768ZM12.0831 6.9963C10.9106 5.81135 9.00618 5.81135 7.83362 6.9963L8.89985 8.05137C9.48537 7.45966 10.4314 7.45966 11.0169 8.05137L12.0831 6.9963ZM14.2002 16.6471L9.42506 21.4725L10.4913 22.5275L15.2664 17.7022L14.2002 16.6471ZM10.4913 21.4725L2.53311 13.4301L1.46689 14.4852L9.42505 22.5275L10.4913 21.4725ZM2.5331 14.4852L7.3082 9.65985L6.24201 8.60476L1.4669 13.4301L2.5331 14.4852ZM4.92048 16.8979L8.10374 13.6809L7.03751 12.6259L3.85425 15.8428L4.92048 16.8979ZM8.10395 20.1149L11.2872 16.8979L10.221 15.8429L7.03772 19.0598L8.10395 20.1149ZM20.4775 3.19637L20.7926 3.48832L21.8121 2.38802L21.497 2.09607L20.4775 3.19637Z" fill="#242320"/>
</svg>
