<svg width="24" height="24" viewBox="0 0 24 24" fill="none" xmlns="http://www.w3.org/2000/svg">
<path d="M16.1821 6.375C16.7924 5.68453 17.6794 5.25 18.6667 5.25C20.5077 5.25 22 6.76104 22 8.625C22 10.489 20.5077 12 18.6667 12H2M8.1214 3.75C8.52831 3.28969 9.11963 3 9.77778 3C11.0051 3 12 4.00736 12 5.25C12 6.49264 11.0051 7.5 9.77778 7.5H2M11.4548 20.25C11.8617 20.7103 12.453 21 13.1111 21C14.3384 21 15.3333 19.9927 15.3333 18.75C15.3333 17.5073 14.3384 16.5 13.1111 16.5H2" stroke="#242320" stroke-width="1.5" stroke-linecap="round" stroke-linejoin="round"/>
</svg>
