<svg width="24" height="24" viewBox="0 0 24 24" fill="none" xmlns="http://www.w3.org/2000/svg">
<path d="M12 22C16.4571 22 20 19.7778 20 14.2222C20 8.66667 14.2857 8.66667 14.2857 2C10.8571 4.22222 9.29143 6.55556 8.57143 10.8889C7.40964 10.0928 6.5947 8.90437 6.28571 7.55556C5.14286 8.66667 4 12 4 14.2222C4 17.7111 5.46286 22 12 22Z" stroke="#242320" stroke-width="1.5" stroke-linecap="round" stroke-linejoin="round"/>
<path d="M9.08789 20V18.8984L12.0879 16.0039C12.9434 15.1484 13.3887 14.6445 13.3887 13.9297C13.3887 13.1387 12.7617 12.6406 11.9355 12.6406C11.0625 12.6406 10.5 13.1855 10.5059 14.0469H9.05273C9.04688 12.4414 10.2539 11.3984 11.9473 11.3984C13.6816 11.3984 14.8477 12.4355 14.8535 13.8594C14.8477 14.8145 14.3906 15.5879 12.7207 17.1641L11.209 18.6641V18.7227H14.9824V20H9.08789Z" fill="#242320"/>
</svg>
