<svg width="24" height="24" viewBox="0 0 24 24" fill="none" xmlns="http://www.w3.org/2000/svg">
<mask id="path-1-inside-1_1634_4832" fill="white">
<path fill-rule="evenodd" clip-rule="evenodd" d="M15.2366 7.83166C14.5365 6.1659 12.9224 5 11.0431 5C9.16388 5 7.54982 6.1659 6.84967 7.83165C6.7274 7.81896 6.60335 7.81246 6.47782 7.81246C4.46078 7.81246 2.82566 9.49133 2.82566 11.5623C2.82566 11.6155 2.82673 11.6684 2.82887 11.7211C1.76354 12.1063 1 13.1488 1 14.3744C1 15.9277 2.22635 17.1869 3.73912 17.1869C3.91201 17.1869 4.08116 17.1704 4.24517 17.139C4.74171 17.7355 5.55667 18.1246 6.47785 18.1246C7.21564 18.1246 7.88529 17.875 8.37779 17.4691C9.13135 17.8707 10.2504 18.1251 11.4997 18.1251C12.7489 18.1251 13.8679 17.8707 14.6215 17.4692C15.114 17.875 15.7836 18.1246 16.5213 18.1246C17.4426 18.1246 18.2576 17.7355 18.7541 17.1389C18.9182 17.1704 19.0875 17.1869 19.2606 17.1869C20.7733 17.1869 21.9997 15.9277 21.9997 14.3744C21.9997 12.8212 20.7734 11.5621 19.2607 11.562C19.2605 9.49117 17.6255 7.81246 15.6085 7.81246C15.483 7.81246 15.3589 7.81896 15.2366 7.83166Z"/>
</mask>
<path d="M15.2366 7.83166L13.8538 8.41289C14.1098 9.02203 14.7343 9.39189 15.3916 9.32364L15.2366 7.83166ZM6.84967 7.83165L6.69476 9.32363C7.35198 9.39187 7.97645 9.02202 8.23248 8.41288L6.84967 7.83165ZM2.82887 11.7211L3.33901 13.1316C3.9541 12.9092 4.35414 12.3138 4.32764 11.6603L2.82887 11.7211ZM4.24517 17.139L5.39807 16.1794C5.04875 15.7597 4.49893 15.563 3.96265 15.6658L4.24517 17.139ZM8.37779 17.4691L9.08315 16.1453C8.54736 15.8599 7.89233 15.9255 7.42383 16.3116L8.37779 17.4691ZM14.6215 17.4692L15.5754 16.3116C15.1069 15.9256 14.4519 15.8599 13.9162 16.1454L14.6215 17.4692ZM18.7541 17.1389L19.0368 15.6658C18.5005 15.5628 17.9505 15.7595 17.6011 16.1793L18.7541 17.1389ZM19.2607 11.562L17.7607 11.5621C17.7608 12.3905 18.4323 13.062 19.2606 13.062L19.2607 11.562ZM16.6194 7.25044C15.7008 5.06477 13.5652 3.5 11.0431 3.5V6.5C12.2797 6.5 13.3722 7.26704 13.8538 8.41289L16.6194 7.25044ZM11.0431 3.5C8.52111 3.5 6.38553 5.06477 5.46685 7.25043L8.23248 8.41288C8.71411 7.26703 9.80665 6.5 11.0431 6.5V3.5ZM7.00458 6.33967C6.83095 6.32165 6.65519 6.31246 6.47782 6.31246V9.31246C6.55151 9.31246 6.62385 9.31627 6.69476 9.32363L7.00458 6.33967ZM6.47782 6.31246C3.59527 6.31246 1.32566 8.70049 1.32566 11.5623H4.32566C4.32566 10.2822 5.3263 9.31246 6.47782 9.31246V6.31246ZM1.32566 11.5623C1.32566 11.6358 1.32714 11.709 1.3301 11.7818L4.32764 11.6603C4.32632 11.6279 4.32566 11.5952 4.32566 11.5623H1.32566ZM2.31873 10.3105C0.658865 10.9108 -0.5 12.5176 -0.5 14.3744H2.5C2.5 13.7801 2.86822 13.3019 3.33901 13.1316L2.31873 10.3105ZM-0.5 14.3744C-0.5 16.7185 1.36083 18.6869 3.73912 18.6869V15.6869C3.09186 15.6869 2.5 15.1368 2.5 14.3744H-0.5ZM3.73912 18.6869C4.00737 18.6869 4.27111 18.6613 4.52769 18.6121L3.96265 15.6658C3.89122 15.6795 3.81666 15.6869 3.73912 15.6869V18.6869ZM3.09227 18.0985C3.89407 19.0619 5.14389 19.6246 6.47785 19.6246V16.6246C5.96946 16.6246 5.58935 16.4092 5.39807 16.1794L3.09227 18.0985ZM6.47785 19.6246C7.55088 19.6246 8.56088 19.262 9.33175 18.6267L7.42383 16.3116C7.2097 16.488 6.88039 16.6246 6.47785 16.6246V19.6246ZM7.67243 18.793C8.69968 19.3403 10.0777 19.6251 11.4997 19.6251V16.6251C10.4232 16.6251 9.56302 16.401 9.08315 16.1453L7.67243 18.793ZM11.4997 19.6251C12.9217 19.6251 14.2996 19.3403 15.3268 18.7931L13.9162 16.1454C13.4363 16.4011 12.5762 16.6251 11.4997 16.6251V19.6251ZM13.6676 18.6268C14.4384 19.262 15.4484 19.6246 16.5213 19.6246V16.6246C16.1188 16.6246 15.7895 16.4881 15.5754 16.3116L13.6676 18.6268ZM16.5213 19.6246C17.8554 19.6246 19.1052 19.0618 19.907 18.0984L17.6011 16.1793C17.4099 16.4092 17.0298 16.6246 16.5213 16.6246V19.6246ZM18.4713 18.612C18.7281 18.6613 18.9921 18.6869 19.2606 18.6869V15.6869C19.183 15.6869 19.1083 15.6795 19.0368 15.6658L18.4713 18.612ZM19.2606 18.6869C21.6388 18.6869 23.4997 16.7185 23.4997 14.3744H20.4997C20.4997 15.1368 19.9078 15.6869 19.2606 15.6869V18.6869ZM23.4997 14.3744C23.4997 12.0304 21.639 10.0622 19.2608 10.062L19.2606 13.062C19.9079 13.0621 20.4997 13.6121 20.4997 14.3744H23.4997ZM15.6085 9.31246C16.76 9.31246 17.7606 10.2821 17.7607 11.5621L20.7607 11.5619C20.7605 8.70026 18.4909 6.31246 15.6085 6.31246V9.31246ZM15.3916 9.32364C15.4625 9.31627 15.5349 9.31246 15.6085 9.31246V6.31246C15.4311 6.31246 15.2553 6.32165 15.0817 6.33969L15.3916 9.32364Z" fill="#565655" mask="url(#path-1-inside-1_1634_4832)"/>
</svg>
