<svg width="24" height="24" viewBox="0 0 24 24" fill="none" xmlns="http://www.w3.org/2000/svg">
<path d="M8.88079 14.1056L9.41164 13.5758L8.88079 13.0438L8.34993 13.5758L8.88079 14.1056ZM9.89818 18.5723L9.36732 19.1021L9.89818 19.634L10.429 19.1021L9.89818 18.5723ZM11.6184 16.8486L12.1493 17.3784L12.678 16.8486L12.1493 16.3188L11.6184 16.8486ZM2 21L1.46914 20.4702L0.00765324 21.9346L2.06804 21.7469L2 21ZM11.4613 20.1382L11.5294 20.8851L13.1217 20.74L11.9922 19.6083L11.4613 20.1382ZM8.45378 13.4678C8.17681 13.7758 8.20196 14.25 8.50996 14.527C8.81795 14.8039 9.29216 14.7788 9.56913 14.4708L8.45378 13.4678ZM18.1719 3.78268L17.6362 3.25779C17.6287 3.26543 17.6214 3.27323 17.6142 3.28119L18.1719 3.78268ZM21.9054 3.6925L22.4128 3.14018L22.4128 3.14015L21.9054 3.6925ZM22.246 4.00535L21.7386 4.55767L21.7387 4.55773L22.246 4.00535ZM22.1479 7.43456L21.67 6.8565C21.6631 6.8622 21.6564 6.86802 21.6497 6.87396L22.1479 7.43456ZM11.5542 15.8463C11.2446 16.1215 11.2167 16.5955 11.4918 16.9051C11.767 17.2147 12.2411 17.2427 12.5507 16.9675L11.5542 15.8463ZM8.34993 13.5758L6.62969 15.2994L7.6914 16.359L9.41164 14.6354L8.34993 13.5758ZM6.62969 16.359L9.36732 19.1021L10.429 18.0425L7.6914 15.2994L6.62969 16.359ZM10.429 19.1021L12.1493 17.3784L11.0876 16.3188L9.36732 18.0425L10.429 19.1021ZM12.1493 16.3188L9.41164 13.5758L8.34993 14.6354L11.0876 17.3784L12.1493 16.3188ZM6.62969 15.2994L1.46914 20.4702L2.53086 21.5298L7.6914 16.359L6.62969 15.2994ZM11.9922 19.6083L7.69138 15.2994L6.62971 16.359L10.9305 20.668L11.9922 19.6083ZM2.06804 21.7469L11.5294 20.8851L11.3933 19.3913L1.93196 20.2531L2.06804 21.7469ZM9.56913 14.4708L18.7296 4.28418L17.6142 3.28119L8.45378 13.4678L9.56913 14.4708ZM18.7076 4.30758C19.4087 3.592 20.6512 3.5588 21.3981 4.24485L22.4128 3.14015C21.0741 1.9105 18.9081 1.95963 17.6362 3.25779L18.7076 4.30758ZM21.7387 4.55773C22.4436 5.20522 22.4186 6.23773 21.67 6.8565L22.6258 8.01262C24.0696 6.81902 24.1341 4.72118 22.7533 3.45297L21.7387 4.55773ZM21.6497 6.87396L11.5542 15.8463L12.5507 16.9675L22.6461 7.99515L21.6497 6.87396ZM21.398 4.24481L21.7386 4.55767L22.7534 3.45304L22.4128 3.14018L21.398 4.24481Z" fill="#242320"/>
</svg>
