<svg width="24" height="24" viewBox="0 0 24 24" fill="none" xmlns="http://www.w3.org/2000/svg">
<path d="M12 22C16.4571 22 20 19.7778 20 14.2222C20 8.66667 14.2857 8.66667 14.2857 2C10.8571 4.22222 9.29143 6.55556 8.57143 10.8889C7.40964 10.0928 6.5947 8.90437 6.28571 7.55556C5.14286 8.66667 4 12 4 14.2222C4 17.7111 5.46286 22 12 22Z" stroke="#242320" stroke-width="1.5" stroke-linecap="round" stroke-linejoin="round"/>
<path d="M11.9941 20.1172C10.1836 20.1172 8.88867 19.1328 8.85352 17.7031H10.3887C10.4297 18.3828 11.1094 18.834 11.9941 18.8281C12.9258 18.834 13.5996 18.3184 13.5996 17.5625C13.5996 16.8008 12.9434 16.2559 11.8418 16.25H11.0801V15.0781H11.8418C12.7441 15.0781 13.3711 14.5742 13.3652 13.8359C13.3711 13.1211 12.832 12.6406 12.0059 12.6406C11.209 12.6406 10.5234 13.0859 10.4941 13.8008H9.0293C9.06445 12.377 10.3594 11.3984 12.0176 11.3984C13.7402 11.3984 14.8535 12.4531 14.8418 13.7539C14.8535 14.7031 14.2207 15.3887 13.2949 15.582V15.6523C14.4902 15.8105 15.1699 16.5781 15.1582 17.6445C15.1699 19.0801 13.8281 20.1172 11.9941 20.1172Z" fill="#242320"/>
</svg>
