<svg width="18" height="19" viewBox="0 0 18 19" fill="none" xmlns="http://www.w3.org/2000/svg">
<path d="M13.7692 7.5H8.23077C7.55103 7.5 7 8.11991 7 8.88462V15.1154C7 15.8801 7.55103 16.5 8.23077 16.5H13.7692C14.449 16.5 15 15.8801 15 15.1154V8.88462C15 8.11991 14.449 7.5 13.7692 7.5Z" stroke="#A2A1A0" stroke-linecap="round" stroke-linejoin="round"/>
<path d="M4.84615 11.5H4.23077C3.90435 11.5 3.5913 11.3541 3.36048 11.0945C3.12967 10.8348 3 10.4826 3 10.1154V3.88462C3 3.51739 3.12967 3.16521 3.36048 2.90554C3.5913 2.64588 3.90435 2.5 4.23077 2.5H9.76923C10.0957 2.5 10.4087 2.64588 10.6395 2.90554C10.8703 3.16521 11 3.51739 11 3.88462V4.57692" stroke="#A2A1A0" stroke-linecap="round" stroke-linejoin="round"/>
</svg>
