<svg width="28" height="28" viewBox="0 0 28 28" fill="none" xmlns="http://www.w3.org/2000/svg">
<g clip-path="url(#clip0_1276_4286)">
<circle cx="14" cy="14" r="14" fill="#242320"/>
<path d="M21.5 18.6667C21.5 19.0203 21.3563 19.3594 21.1006 19.6095C20.8449 19.8595 20.498 20 20.1364 20H7.86364C7.50198 20 7.15513 19.8595 6.8994 19.6095C6.64367 19.3594 6.5 19.0203 6.5 18.6667V11.3333C6.5 10.9797 6.64367 10.6406 6.8994 10.3905C7.15513 10.1405 7.50198 10 7.86364 10H10.5909L11.9545 8H16.0455L17.4091 10H20.1364C20.498 10 20.8449 10.1405 21.1006 10.3905C21.3563 10.6406 21.5 10.9797 21.5 11.3333V18.6667Z" fill="white" stroke="white" stroke-width="1.5" stroke-linecap="round" stroke-linejoin="round"/>
<path d="M14 18C15.6569 18 17 16.6569 17 15C17 13.3431 15.6569 12 14 12C12.3431 12 11 13.3431 11 15C11 16.6569 12.3431 18 14 18Z" stroke="#242320" stroke-width="1.5" stroke-linecap="round" stroke-linejoin="round"/>
</g>
<defs>
<clipPath id="clip0_1276_4286">
<rect width="28" height="28" fill="white"/>
</clipPath>
</defs>
</svg>
