<svg width="32" height="33" viewBox="0 0 32 33" fill="none" xmlns="http://www.w3.org/2000/svg">
<circle cx="16" cy="16.5" r="16" fill="#F2F1ED"/>
<path d="M22.9999 19.6996V13.6998C22.9999 13.0375 22.5097 12.4999 21.8681 12.4999C21.4705 12.4999 20.7058 12.7399 20.7058 13.6998V11.2999M20.7058 11.2999C20.7058 10.6375 20.2156 10.0999 19.574 10.0999C19.1863 10.0999 18.4116 10.3399 18.4116 11.2999M20.7058 11.2999V15.6998M18.4116 11.2999V9.69996C18.4116 9.03758 17.9215 8.5 17.2799 8.5C16.6375 8.5 16.1175 9.03758 16.1175 9.69996V11.2999M18.4116 11.2999V15.6998M16.1175 11.2999C16.1175 10.3399 15.3581 10.0999 14.9704 10.0999C14.3281 10.0999 13.8234 10.6527 13.8234 11.3159V18.0997M16.1175 11.2999V15.6998" stroke="#B9B8B7" stroke-linecap="round" stroke-linejoin="round"/>
<path d="M23 19.7001C23 22.9 20.6034 24.5 17.647 24.5C14.6906 24.5 13.6736 23.7 11.3794 19.7001L10.1781 17.6162C9.76818 16.9218 10.0962 16.021 10.8518 15.7651C11.0988 15.6806 11.3647 15.6777 11.6134 15.7567C11.8621 15.8357 12.0816 15.9928 12.242 16.2066L13.8234 18.1266" stroke="#B9B8B7" stroke-linecap="round" stroke-linejoin="round"/>
</svg>
