<svg width="18" height="18" viewBox="0 0 18 18" fill="none" xmlns="http://www.w3.org/2000/svg">
<rect width="18" height="18" fill="white"/>
<path d="M15.7663 3.2377C15.3753 2.84531 14.9111 2.53404 14.4002 2.32168C13.8893 2.10931 13.3417 2 12.7887 2C12.2357 2 11.6881 2.10931 11.1772 2.32168C10.6663 2.53404 10.2021 2.84531 9.81116 3.2377L8.9998 4.05166L8.18843 3.2377C7.39874 2.44548 6.32768 2.00041 5.21089 2.00041C4.09409 2.00041 3.02303 2.44548 2.23334 3.2377C1.44365 4.02993 1 5.10441 1 6.22479C1 7.34516 1.44365 8.41965 2.23334 9.21187L3.0447 10.0258L8.9998 16L14.9549 10.0258L15.7663 9.21187C16.1574 8.81967 16.4677 8.354 16.6793 7.84146C16.891 7.32893 17 6.77958 17 6.22479C17 5.67 16.891 5.12064 16.6793 4.60811C16.4677 4.09558 16.1574 3.6299 15.7663 3.2377Z" fill="#794F34"/>
</svg>
