<svg width="24" height="24" viewBox="0 0 24 24" fill="none" xmlns="http://www.w3.org/2000/svg">
<path fill-rule="evenodd" clip-rule="evenodd" d="M3.17932 16.6711C2.83434 17.4301 2.99634 18.3234 3.58584 18.9129L4.67905 20.0061C5.26856 20.5956 6.16191 20.7576 6.92087 20.4126L7.93932 19.9497C8.11945 20.5149 8.43371 21.0467 8.8821 21.4951C10.381 22.994 12.8113 22.994 14.3102 21.4951C15.5854 20.2199 15.7757 18.2707 14.8813 16.7943L19.825 14.5471C21.0962 13.9693 21.399 12.2996 20.4116 11.3122L12.2798 3.18039C11.2924 2.19298 9.62267 2.49574 9.04483 3.76699L3.17932 16.6711ZM9.32095 19.3217L13.4996 17.4223C14.1533 18.3357 14.0699 19.614 13.2495 20.4344C12.3364 21.3475 10.8559 21.3475 9.94276 20.4344C9.62471 20.1163 9.41744 19.7295 9.32095 19.3217Z" fill="#794F34"/>
<path d="M17.7026 5.88925L20.4167 3.1752" stroke="#794F34" stroke-width="1.5" stroke-linecap="round"/>
<path d="M15.667 3.85373L16.1637 2" stroke="#794F34" stroke-width="1.5" stroke-linecap="round"/>
<path d="M21.5918 7.42818L19.7381 7.92488" stroke="#794F34" stroke-width="1.5" stroke-linecap="round"/>
</svg>
