<svg width="24" height="24" viewBox="0 0 24 24" fill="none" xmlns="http://www.w3.org/2000/svg">
<path d="M4.90274 18.3602L5.45571 17.8536L4.90274 18.3602L5.75312 19.2883C6.4279 20.0247 7.48126 20.246 8.38323 19.7986L8.45857 19.7612C8.61146 20.0424 8.7993 20.3087 9.02256 20.5523C10.4858 22.1492 12.8876 22.1492 14.3509 20.5523C15.3867 19.4219 15.6666 17.8048 15.2115 16.4113L18.421 14.8192C19.8861 14.0924 20.1801 12.0764 19.097 10.8944L12.7715 3.99099L12.2185 4.49767L12.7714 3.99099C11.606 2.71901 9.65423 3.15992 9.00976 4.7073L4.44714 15.662C4.07061 16.5661 4.23984 17.6368 4.90274 18.3602ZM10.9536 18.6385C10.9297 18.6124 10.907 18.5853 10.8855 18.5573L12.7515 17.6316C12.7794 17.9955 12.6667 18.3691 12.4199 18.6385C12.0068 19.0893 11.3666 19.0893 10.9536 18.6385Z" stroke="#3A3A39" stroke-width="1.5"/>
<path d="M17.7026 5.88916L20.4167 3.17511" stroke="#3A3A39" stroke-width="1.5" stroke-linecap="round"/>
<path d="M15.667 3.85376L16.1637 2.00003" stroke="#3A3A39" stroke-width="1.5" stroke-linecap="round"/>
<path d="M21.5918 7.42822L19.7381 7.92493" stroke="#3A3A39" stroke-width="1.5" stroke-linecap="round"/>
</svg>
