<svg width="32" height="33" viewBox="0 0 32 33" fill="none" xmlns="http://www.w3.org/2000/svg">
<circle cx="16" cy="16.5" r="16" fill="#F2F1ED"/>
<path d="M13.2998 10.9838L12.8677 9.38375C12.8109 9.17356 12.9678 9 13.1344 9H18.8656C19.0322 9 19.1891 9.17356 19.1323 9.38375L18.7002 10.9838C18.6526 11.16 18.653 11.3578 18.7107 11.5407C18.769 11.7257 18.9013 11.935 19.1464 12.0462C21.1511 12.9553 22.5 14.7802 22.5 17.3C22.5 21.0137 19.5767 24 16 24C12.4233 24 9.5 21.0137 9.5 17.3C9.5 14.7802 10.8489 12.9553 12.8536 12.0462C13.0987 11.935 13.231 11.7257 13.2893 11.5407C13.347 11.3578 13.3474 11.16 13.2998 10.9838Z" stroke="#B9B8B7"/>
</svg>
